<svg width="30" height="31" viewBox="0 0 30 31" fill="none" xmlns="http://www.w3.org/2000/svg">
<g id="devicon:google" clip-path="url(#clip0_1_1478)">
<path id="Vector" d="M10.4508 1.77705C7.45332 2.79154 4.86831 4.71707 3.07545 7.27081C1.28259 9.82455 0.376388 12.8719 0.489945 15.9652C0.603502 19.0586 1.73083 22.0349 3.70635 24.4569C5.68187 26.879 8.40145 28.6192 11.4656 29.4219C13.9498 30.0472 16.5525 30.0747 19.05 29.5019C21.3125 29.0061 23.4042 27.9456 25.1203 26.4242C26.9064 24.7923 28.2029 22.7164 28.8703 20.4196C29.5958 17.9219 29.7248 15.2952 29.2477 12.7412H15.2977V18.3868H23.3766C23.2151 19.2872 22.8691 20.1466 22.3593 20.9136C21.8494 21.6805 21.1862 22.3392 20.4094 22.8502C19.4229 23.4869 18.3108 23.9153 17.1445 24.1078C15.9749 24.32 14.7751 24.32 13.6055 24.1078C12.42 23.8687 11.2985 23.3914 10.3125 22.7062C8.72848 21.6122 7.53909 20.0581 6.91407 18.2656C6.27847 16.4395 6.27847 14.4598 6.91407 12.6338C7.35897 11.3538 8.09446 10.1883 9.06563 9.22446C10.177 8.10117 11.5841 7.29824 13.1324 6.90375C14.6807 6.50927 16.3105 6.53848 17.843 6.98818C19.0401 7.3467 20.1348 7.9731 21.0398 8.81745C21.9508 7.9333 22.8602 7.04687 23.768 6.15815C24.2367 5.68025 24.7477 5.22522 25.2094 4.73589C23.8279 3.48165 22.2063 2.50569 20.4375 1.86394C17.2165 0.722915 13.6921 0.69225 10.4508 1.77705Z" fill="white"/>
<path id="Vector_2" d="M10.4508 1.77707C13.6919 0.691526 17.2162 0.721383 20.4375 1.86167C22.2066 2.50778 23.8275 3.48843 25.207 4.74734C24.7383 5.23667 24.2437 5.69399 23.7656 6.1696C22.8562 7.05527 21.9477 7.93789 21.0398 8.81746C20.1348 7.97311 19.0401 7.34671 17.843 6.98819C16.311 6.53692 14.6813 6.50602 13.1325 6.89889C11.5838 7.29176 10.1759 8.09321 9.06328 9.21533C8.09211 10.1792 7.35662 11.3446 6.91172 12.6246L2.05312 8.95466C3.79221 5.59009 6.80332 3.01645 10.4508 1.77707Z" fill="#E33629"/>
<path id="Vector_3" d="M0.76406 12.5903C1.0252 11.3277 1.45876 10.1049 2.05312 8.95465L6.91172 12.6338C6.27613 14.4598 6.27613 16.4395 6.91172 18.2656C5.29297 19.4851 3.67344 20.7107 2.05312 21.9425C0.565195 19.0529 0.111403 15.7607 0.76406 12.5903Z" fill="#F8BD00"/>
<path id="Vector_4" d="M15.2977 12.739H29.2477C29.7248 15.2929 29.5958 17.9196 28.8703 20.4173C28.2029 22.7141 26.9064 24.79 25.1203 26.4219C23.5523 25.2283 21.9773 24.0438 20.4094 22.8502C21.1867 22.3387 21.8502 21.6793 22.3601 20.9115C22.87 20.1438 23.2157 19.2835 23.3766 18.3822H15.2977C15.2953 16.5027 15.2977 14.6208 15.2977 12.739Z" fill="#587DBD"/>
<path id="Vector_5" d="M2.05078 21.9425C3.67109 20.7229 5.29062 19.4973 6.90937 18.2656C7.53564 20.0588 8.72673 21.6129 10.3125 22.7062C11.3016 23.3882 12.4255 23.8617 13.6125 24.0964C14.7822 24.3086 15.9819 24.3086 17.1516 24.0964C18.3178 23.9038 19.4299 23.4754 20.4164 22.8388C21.9844 24.0324 23.5594 25.2168 25.1273 26.4104C23.4115 27.9327 21.3197 28.994 19.057 29.4905C16.5596 30.0633 13.9569 30.0358 11.4727 29.4104C9.50789 28.8986 7.67268 27.9964 6.08203 26.7603C4.39842 25.4562 3.02333 23.8128 2.05078 21.9425Z" fill="#319F43"/>
</g>
<defs>
<clipPath id="clip0_1_1478">
<rect width="30" height="30" fill="white" transform="translate(0 0.5)"/>
</clipPath>
</defs>
</svg>
