<svg width="201" height="200" viewBox="0 0 201 200" fill="none" xmlns="http://www.w3.org/2000/svg">
<g id="hugeicons:lock">
<g id="Group">
<path id="Vector" d="M183.833 100C183.833 146.025 146.525 183.333 100.5 183.333C54.475 183.333 17.1666 146.025 17.1666 100C17.1666 53.975 54.475 16.6667 100.5 16.6667C146.525 16.6667 183.833 53.975 183.833 100Z" stroke="#8D8D94" stroke-width="10" stroke-linecap="round" stroke-linejoin="round"/>
<path id="Vector_2" d="M100.5 108.333C104.92 108.333 109.159 106.577 112.285 103.452C115.411 100.326 117.167 96.0869 117.167 91.6667C117.167 87.2464 115.411 83.0072 112.285 79.8816C109.159 76.756 104.92 75 100.5 75C96.0796 75 91.8404 76.756 88.7148 79.8816C85.5892 83.0072 83.8333 87.2464 83.8333 91.6667C83.8333 96.0869 85.5892 100.326 88.7148 103.452C91.8404 106.577 96.0796 108.333 100.5 108.333ZM100.5 108.333V133.333" stroke="#8D8D94" stroke-width="10" stroke-linecap="round" stroke-linejoin="round"/>
</g>
</g>
</svg>
